<?xml version="1.0" ?><svg style="enable-background:new 0 0 512 512;" version="1.1" viewBox="0 0 512 512" xml:space="preserve" xmlns="http://www.w3.org/2000/svg" xmlns:xlink="http://www.w3.org/1999/xlink"><style type="text/css">
	.st0{fill:#1E1E1E;}
	.st1{fill:#464646;stroke:#21759B;stroke-width:2;stroke-miterlimit:10;}
	.st2{fill:#FFFFFF;}
</style><g id="Edges"/><g id="Background_Bottom"><g><path class="st0" d="M492.3,443.1c0,34.2-27.7,61.9-61.9,61.9H80.7c-34.2,0-61.9-27.7-61.9-61.9V93.4c0-34.2,27.7-61.9,61.9-61.9    h349.7c34.2,0,61.9,27.7,61.9,61.9V443.1z"/></g></g><g id="Background"><path class="st1" d="M492.3,418.4c0,34.2-27.7,61.9-61.9,61.9H80.7c-34.2,0-61.9-27.7-61.9-61.9V68.6c0-34.2,27.7-61.9,61.9-61.9   h349.7c34.2,0,61.9,27.7,61.9,61.9V418.4z"/></g><g id="Symbol"><path class="st2" d="M404.7,210.8c-11.5-16-33.8-19.9-49.9-8.4c-2.5,1.8-4.1,1.6-6.4,0.2c-19.7-11.8-41.2-18.6-63.8-21.7   c-6.9-1-13.8-1.5-20.9-2.3c6.7-19.2,13.4-38.2,20.1-57.2c0.8,0.1,1.4,0.1,1.9,0.2c14.9,3.6,29.8,7.2,44.7,10.6   c3.2,0.7,4.3,2.1,4.7,5.3c1.7,13.3,12.9,23.9,26,25c14.4,1.1,26.9-7.2,31.1-20.5c4-13.1-1.5-27.4-13.4-34.2   c-11.9-6.9-27.2-4.6-36.2,5.5c-2.3,2.6-4.1,5.7-6.2,8.7c-19.7-4.7-39.6-9.5-59.8-14.3c-0.6,1.6-1.1,2.8-1.6,4.2   c-7.3,20.7-14.7,41.3-21.7,62c-1.3,3.8-2.8,5.8-7.1,5.2c-2.2-0.3-4.5,0.3-6.7,0.4c-27.5,2.2-53.6,9.2-77.5,23.4   c-2,1.2-3.3,1.2-5.2-0.2c-9.9-7-20.8-8.8-32.2-4.9c-13.6,4.6-21.9,14.2-24.1,28.4c-2.2,13.8,2.5,25.3,13.3,34.2   c1.1,0.9,2.3,2.6,2.2,3.8c-2.1,17.2,2.1,32.8,11.6,47c11,16.4,26,28.3,43.6,36.7c49.2,23.5,99.7,25,151,7.6   c20.7-7.1,39.1-18.1,53.8-34.7c14.2-16.1,21.7-34.6,19-56.5c-0.1-1.1,1.1-2.7,2.2-3.5C412.7,248.8,416.2,226.8,404.7,210.8z    M189.2,256.2c0-12.1,9.5-21.8,21.6-22c11.9-0.1,22.2,10.1,22.1,22c-0.1,12.3-9.7,21.7-22.2,21.7   C198.4,277.9,189.1,268.6,189.2,256.2z M306.4,316.9c-8.4,7.2-18.2,11.3-28.9,13.4c-7.4,1.4-14.9,2-22.4,3   c-15.3-0.5-29.9-3.1-43.1-11.2c-2.5-1.5-4.9-3.4-7-5.3c-3-2.7-3.1-6.3-0.7-8.8c2.3-2.4,5.5-2.3,8.5,0.3   c10.1,8.8,22.4,11.8,35.3,12.7c15.2,1.1,29.9-0.7,43.6-8c2.6-1.4,4.9-3.2,7.3-5c3.1-2.3,6.3-2.4,8.5,0.1   C309.8,310.7,309.4,314.3,306.4,316.9z M302.8,277.9c-12.2,0-21.8-9.6-21.7-21.8c0.1-12.1,9.8-21.9,21.8-21.9   c12.1,0,22,10,21.9,22.2C324.7,268.6,315.1,277.9,302.8,277.9z"/></g></svg>